<svg width="24" height="25" viewBox="0 0 24 25" fill="none" xmlns="http://www.w3.org/2000/svg">
<path fill-rule="evenodd" clip-rule="evenodd" d="M19.6778 3.20708C19.2872 2.81655 18.6541 2.81655 18.2635 3.20708L15.7845 5.68617C14.6549 5.24194 13.3948 4.99997 12.0001 4.99997C7.2807 4.99997 4.10257 7.7707 2.30595 11.7733C2.09854 12.2354 2.09854 12.7646 2.30594 13.2266C2.91942 14.5934 3.69397 15.8165 4.63596 16.8347L2.7072 18.7634C2.31667 19.154 2.31667 19.7871 2.7072 20.1776C3.09772 20.5682 3.73088 20.5682 4.12141 20.1776L19.6778 4.62129C20.0683 4.23077 20.0683 3.5976 19.6778 3.20708ZM6.04975 15.4209L8.09613 13.3745C8.03327 13.093 8.00011 12.8003 8.00011 12.5C8.00011 10.292 9.79211 8.49997 12.0001 8.49997C12.3005 8.49997 12.5931 8.53313 12.8746 8.59599L14.1988 7.27179C13.5164 7.09289 12.7839 6.99997 12.0001 6.99997C8.29348 6.99997 5.73703 9.07782 4.17239 12.5C4.68841 13.6286 5.3123 14.611 6.04975 15.4209Z" fill="#494949"/>
<path d="M16.0001 12.5C16.0001 12.085 15.9368 11.6846 15.8193 11.3081L13.8378 13.2897C13.6356 13.7588 13.2589 14.1354 12.7898 14.3376L10.8083 16.3192C11.1848 16.4367 11.5851 16.5 12.0001 16.5C14.2081 16.5 16.0001 14.708 16.0001 12.5Z" fill="#494949"/>
<path d="M12.0001 18C11.0951 18 10.2586 17.8761 9.48844 17.639L7.9311 19.1964C9.13254 19.7152 10.4871 20 12.0001 20C16.7195 20 19.8976 17.2292 21.6943 13.2266C21.9017 12.7646 21.9017 12.2354 21.6943 11.7733C21.0388 10.313 20.1994 9.01667 19.1684 7.95905L17.7556 9.37185C18.5787 10.2193 19.267 11.2733 19.8278 12.5C18.2632 15.9221 15.7067 18 12.0001 18Z" fill="#494949"/>
</svg>
