<svg width="24" height="25" viewBox="0 0 24 25" fill="none" xmlns="http://www.w3.org/2000/svg">
<path fill-rule="evenodd" clip-rule="evenodd" d="M12.0001 16.5C9.79211 16.5 8.00011 14.708 8.00011 12.5C8.00011 10.292 9.79211 8.5 12.0001 8.5C14.2081 8.5 16.0001 10.292 16.0001 12.5C16.0001 14.708 14.2081 16.5 12.0001 16.5ZM12.0001 14.5C10.8967 14.5 10.0001 13.6034 10.0001 12.5C10.0001 11.3966 10.8967 10.5 12.0001 10.5C13.1035 10.5 14.0001 11.3966 14.0001 12.5C14.0001 13.6034 13.1035 14.5 12.0001 14.5Z" fill="#494949"/>
<path fill-rule="evenodd" clip-rule="evenodd" d="M12.0001 5C7.2807 5 4.10257 7.77074 2.30594 11.7733C2.09854 12.2354 2.09854 12.7646 2.30595 13.2267C4.10257 17.2293 7.2807 20 12.0001 20C16.7195 20 19.8976 17.2293 21.6943 13.2267C21.9017 12.7646 21.9017 12.2354 21.6943 11.7733C19.8976 7.77074 16.7195 5 12.0001 5ZM12.0001 18C8.29348 18 5.73703 15.9221 4.17239 12.5C5.73703 9.07785 8.29348 7 12.0001 7C15.7067 7 18.2632 9.07785 19.8278 12.5C18.2632 15.9221 15.7067 18 12.0001 18Z" fill="#494949"/>
</svg>
