<svg width="32" height="32" viewBox="0 0 32 32" fill="none" xmlns="http://www.w3.org/2000/svg">
<path fill-rule="evenodd" clip-rule="evenodd" d="M11.1675 4.00578H20.8322C21.9677 3.94775 23.0805 4.32827 23.9249 5.06337C24.7694 5.79847 25.276 6.82772 25.3331 7.92396V26.6619C25.3347 27.0371 25.1723 27.3956 24.8859 27.6493C24.5994 27.903 24.2154 28.0284 23.8282 27.9946C23.4889 27.9946 23.159 27.8869 22.8894 27.6881L16.9111 23.3034C16.3465 22.8947 15.5703 22.8947 15.0057 23.3034L9.08268 27.6881C8.82059 27.8814 8.50129 27.9889 8.17144 27.9946C7.78426 28.0284 7.40027 27.903 7.1138 27.6493C6.82733 27.3956 6.66494 27.0371 6.66652 26.6619V7.92396C6.72361 6.82772 7.2303 5.79847 8.07474 5.06337C8.91918 4.32827 10.032 3.94775 11.1675 4.00578ZM18.1951 21.7175L23.2345 25.4491L23.2069 7.92396C23.0763 6.76205 22.0115 5.91145 20.8046 6.00485H11.1399C9.93296 5.91145 8.86818 6.76205 8.73752 7.92396V25.4491L13.777 21.7175C15.0819 20.7578 16.8902 20.7578 18.1951 21.7175Z" fill="black"/>
</svg>
