<svg width="31" height="30" viewBox="0 0 31 30" fill="none" xmlns="http://www.w3.org/2000/svg">
<path d="M15.2375 10.05C14.7581 10.1053 14.3963 10.5112 14.3963 10.9937C14.3963 11.4763 14.7581 11.8822 15.2375 11.9375C15.4894 11.941 15.7318 11.8416 15.9087 11.6623C16.0857 11.483 16.1818 11.2393 16.175 10.9875C16.1683 10.4725 15.7525 10.0567 15.2375 10.05Z" fill="black"/>
<path d="M15.2375 13.65C14.9878 13.6466 14.7474 13.7443 14.5708 13.9208C14.3943 14.0974 14.2966 14.3378 14.3 14.5875V18.4875C14.3 19.0053 14.7197 19.425 15.2375 19.425C15.7553 19.425 16.175 19.0053 16.175 18.4875V14.6125C16.1817 14.3596 16.086 14.1146 15.9094 13.9334C15.7329 13.7521 15.4905 13.6499 15.2375 13.65Z" fill="black"/>
<path fill-rule="evenodd" clip-rule="evenodd" d="M15.2375 2.5C8.48177 2.50689 3.00689 7.98177 3 14.7375C3 21.4961 8.47892 26.975 15.2375 26.975C21.9961 26.975 27.475 21.4961 27.475 14.7375C27.4681 7.98177 21.9932 2.50689 15.2375 2.5ZM15.2375 25.1C9.51445 25.1 4.875 20.4606 4.875 14.7375C4.875 9.01445 9.51445 4.375 15.2375 4.375C20.9606 4.375 25.6 9.01445 25.6 14.7375C25.5931 20.4577 20.9577 25.0931 15.2375 25.1Z" fill="black"/>
</svg>
