<svg width="31" height="30" viewBox="0 0 31 30" fill="none" xmlns="http://www.w3.org/2000/svg">
<path fill-rule="evenodd" clip-rule="evenodd" d="M8.3 2.50277H21.425C23.1398 2.4524 24.8035 3.08989 26.0456 4.27325C27.2876 5.45661 28.0049 7.08755 28.0375 8.80277V18.2903C27.9353 21.8163 25.0145 24.6034 21.4875 24.5403H19.4625C18.9535 24.5416 18.4719 24.771 18.15 25.1653L16.2375 27.6028C15.9171 27.9992 15.4347 28.2296 14.925 28.2296C14.4153 28.2296 13.9329 27.9992 13.6125 27.6028L11.6375 25.1153C11.3156 24.721 10.834 24.4916 10.325 24.4903H8.3C4.77304 24.5534 1.85218 21.7663 1.75 18.2403V8.75277C1.84546 5.22374 4.77037 2.4328 8.3 2.50277ZM21.4375 22.6653C23.9481 22.7283 26.0376 20.7505 26.1125 18.2403V8.80277C26.0376 6.28749 23.9404 4.30772 21.425 4.37777H8.3C5.78458 4.30772 3.68736 6.28749 3.6125 8.80277V18.2403C3.68736 20.7556 5.78458 22.7353 8.3 22.6653H10.325C11.4089 22.6655 12.4341 23.1574 13.1125 24.0028L14.8625 26.2278L16.6125 24.0028C17.2909 23.1574 18.3161 22.6655 19.4 22.6653H21.4375Z" fill="black"/>
<path d="M10.175 11.2028C9.65723 11.2028 9.2375 11.6225 9.2375 12.1403V15.1403C9.2375 15.658 9.65723 16.0778 10.175 16.0778C10.6928 16.0778 11.1125 15.658 11.1125 15.1403V12.1403C11.1125 11.6225 10.6928 11.2028 10.175 11.2028Z" fill="black"/>
<path d="M14.8625 11.2028C14.3447 11.2028 13.925 11.6225 13.925 12.1403V15.1403C13.925 15.658 14.3447 16.0778 14.8625 16.0778C15.3803 16.0778 15.8 15.658 15.8 15.1403V12.1403C15.8 11.6225 15.3803 11.2028 14.8625 11.2028Z" fill="black"/>
<path d="M19.55 11.2028C19.0322 11.2028 18.6125 11.6225 18.6125 12.1403V15.1403C18.6125 15.658 19.0322 16.0778 19.55 16.0778C20.0678 16.0778 20.4875 15.658 20.4875 15.1403V12.1403C20.4875 11.6225 20.0678 11.2028 19.55 11.2028Z" fill="black"/>
</svg>
