<svg width="31" height="30" viewBox="0 0 31 30" fill="none" xmlns="http://www.w3.org/2000/svg">
<path d="M21.4625 25.9804L16.1 21.8679C15.5903 21.4803 14.8847 21.4803 14.375 21.8679L8.9625 25.9804C8.56781 26.2977 8.02971 26.3699 7.56534 26.1679C7.10098 25.9658 6.78696 25.5229 6.75 25.0179V7.44289C6.79848 6.41247 7.25582 5.44391 8.0207 4.75176C8.78558 4.05961 9.79487 3.70101 10.825 3.75539H19.575C20.6113 3.70804 21.6234 4.0782 22.3846 4.78303C23.1458 5.48786 23.5926 6.46848 23.625 7.50539V25.0179C23.5763 25.5048 23.2703 25.9282 22.8233 26.1272C22.3762 26.3262 21.8568 26.2701 21.4625 25.9804Z" fill="black"/>
</svg>
