<svg width="32" height="32" viewBox="0 0 32 32" fill="none" xmlns="http://www.w3.org/2000/svg">
<path fill-rule="evenodd" clip-rule="evenodd" d="M5.41568 10.226C7.31728 5.65979 11.7728 2.68025 16.7191 2.66704C22.05 2.63897 26.7902 6.05361 28.4519 11.119C30.1137 16.1844 28.3175 21.7434 24.0059 24.8786C19.6943 28.0139 13.8523 28.0092 9.54579 24.867L5.70579 28.707C5.31536 29.097 4.68288 29.097 4.29245 28.707C3.90252 28.3166 3.90252 27.6841 4.29245 27.2937L8.01245 23.5737C4.53766 20.0535 3.51407 14.7922 5.41568 10.226ZM7.19855 18.8923C8.79518 22.7399 12.5534 25.2458 16.7191 25.2404V25.187C22.3728 25.1798 26.9625 20.614 26.9991 14.9604C27.0045 10.7947 24.4986 7.03643 20.651 5.4398C16.8035 3.84317 12.3729 4.72298 9.42731 7.66857C6.48172 10.6142 5.60192 15.0447 7.19855 18.8923Z" fill="#4F4F4F"/>
</svg>
