<svg width="31" height="30" viewBox="0 0 31 30" fill="none" xmlns="http://www.w3.org/2000/svg">
<path fill-rule="evenodd" clip-rule="evenodd" d="M10.9697 3.75542H20.0303C21.0949 3.70101 22.1381 4.05775 22.9298 4.74691C23.7214 5.43607 24.1964 6.40098 24.25 7.42871V24.9955C24.2514 25.3473 24.0992 25.6834 23.8306 25.9212C23.5621 26.1591 23.2021 26.2766 22.8391 26.2449C22.521 26.2449 22.2117 26.144 21.9589 25.9576L16.3543 21.847C15.825 21.4638 15.0973 21.4638 14.568 21.847L9.01517 25.9576C8.76945 26.1389 8.47011 26.2395 8.16088 26.2449C7.7979 26.2766 7.4379 26.1591 7.16934 25.9212C6.90077 25.6834 6.74853 25.3473 6.75001 24.9955V7.42871C6.80354 6.40098 7.27856 5.43607 8.07022 4.74691C8.86188 4.05775 9.90512 3.70101 10.9697 3.75542ZM17.558 20.3602L22.2825 23.8585L22.2566 7.42871C22.1341 6.33942 21.1359 5.54199 20.0044 5.62955H10.9438C9.8123 5.54199 8.81407 6.33942 8.69157 7.42871V23.8585L13.416 20.3602C14.6394 19.4604 16.3347 19.4604 17.558 20.3602Z" fill="black"/>
</svg>
