<svg width="32" height="32" viewBox="0 0 32 32" fill="none" xmlns="http://www.w3.org/2000/svg">
<path fill-rule="evenodd" clip-rule="evenodd" d="M8.32016 2.66965H22.3202C24.1493 2.61591 25.9239 3.29591 27.2488 4.55816C28.5736 5.82041 29.3387 7.56008 29.3735 9.38965V19.5096C29.2645 23.2708 26.1489 26.2436 22.3868 26.1763H20.2268C19.6839 26.1777 19.1702 26.4224 18.8268 26.843L16.7868 29.443C16.4451 29.8659 15.9305 30.1116 15.3868 30.1116C14.8431 30.1116 14.3286 29.8659 13.9868 29.443L11.8802 26.7896C11.5368 26.369 11.0231 26.1244 10.4802 26.123H8.32016C4.55807 26.1903 1.44249 23.2174 1.3335 19.4563V9.33631C1.43532 5.57201 4.55523 2.59501 8.32016 2.66965ZM22.3335 24.1763C25.0115 24.2436 27.2403 22.1339 27.3202 19.4563V9.38965C27.2403 6.70668 25.0033 4.59492 22.3202 4.66965H8.32016C5.63705 4.59492 3.40001 6.70668 3.32016 9.38965V19.4563C3.40001 22.1393 5.63705 24.251 8.32016 24.1763H10.4802C11.6363 24.1765 12.7299 24.7013 13.4535 25.603L15.3202 27.9763L17.1868 25.603C17.9104 24.7013 19.004 24.1765 20.1602 24.1763H22.3335Z" fill="#4F4F4F"/>
<path d="M10.3202 11.9496C9.76788 11.9496 9.32016 12.3974 9.32016 12.9496V16.1496C9.32016 16.7019 9.76788 17.1496 10.3202 17.1496C10.8724 17.1496 11.3202 16.7019 11.3202 16.1496V12.9496C11.3202 12.3974 10.8724 11.9496 10.3202 11.9496Z" fill="#4F4F4F"/>
<path d="M15.3202 11.9496C14.7679 11.9496 14.3202 12.3974 14.3202 12.9496V16.1496C14.3202 16.7019 14.7679 17.1496 15.3202 17.1496C15.8724 17.1496 16.3202 16.7019 16.3202 16.1496V12.9496C16.3202 12.3974 15.8724 11.9496 15.3202 11.9496Z" fill="#4F4F4F"/>
<path d="M20.3202 11.9496C19.7679 11.9496 19.3202 12.3974 19.3202 12.9496V16.1496C19.3202 16.7019 19.7679 17.1496 20.3202 17.1496C20.8724 17.1496 21.3202 16.7019 21.3202 16.1496V12.9496C21.3202 12.3974 20.8724 11.9496 20.3202 11.9496Z" fill="#4F4F4F"/>
</svg>
