<svg width="24" height="24" viewBox="0 0 24 24" fill="none" xmlns="http://www.w3.org/2000/svg">
<path fill-rule="evenodd" clip-rule="evenodd" d="M3 6.994C3 5.893 3.892 5 4.995 5H19.005C20.107 5 21 5.895 21 6.994V19.006C21 20.107 20.108 21 19.005 21H4.995C3.893 21 3 20.106 3 19.006V6.994ZM5.25 9.571V17.718C5.25 18.273 5.694 18.714 6.243 18.714H17.758C18.3 18.714 18.75 18.268 18.75 17.718V9.571H5.25Z" fill="#505968"/>
<path fill-rule="evenodd" clip-rule="evenodd" d="M7 13H9V10.999H7V13Z" fill="#505968"/>
<path fill-rule="evenodd" clip-rule="evenodd" d="M15 13H17V10.999H15V13Z" fill="#505968"/>
<path fill-rule="evenodd" clip-rule="evenodd" d="M11 13H13.001V10.999H11V13Z" fill="#505968"/>
<path fill-rule="evenodd" clip-rule="evenodd" d="M7 17H9V15H7V17Z" fill="#505968"/>
<path fill-rule="evenodd" clip-rule="evenodd" d="M11 17H13.001V15H11V17Z" fill="#505968"/>
<path fill-rule="evenodd" clip-rule="evenodd" d="M15 17H17V15H15V17Z" fill="#505968"/>
<path fill-rule="evenodd" clip-rule="evenodd" d="M6 4V5H8V4C8 3.448 7.552 3 7 3C6.448 3 6 3.448 6 4Z" fill="#505968"/>
<path fill-rule="evenodd" clip-rule="evenodd" d="M16 4V5H18V4C18 3.448 17.552 3 17 3C16.448 3 16 3.448 16 4Z" fill="#505968"/>
</svg>
